<?xml version="1.0" encoding="utf-8" standalone="no"?>
<!DOCTYPE svg PUBLIC "-//W3C//DTD SVG 1.1//EN"
  "http://www.w3.org/Graphics/SVG/1.1/DTD/svg11.dtd">
<svg height="504pt" version="1.1" viewBox="0 0 864 504" width="864pt" xmlns="http://www.w3.org/2000/svg" xmlns:xlink="http://www.w3.org/1999/xlink">
 <metadata>
  <rdf:RDF xmlns:cc="http://creativecommons.org/ns#" xmlns:dc="http://purl.org/dc/elements/1.1/" xmlns:rdf="http://www.w3.org/1999/02/22-rdf-syntax-ns#">
   <cc:Work>
    <dc:type rdf:resource="http://purl.org/dc/dcmitype/StillImage"/>
    <dc:date>2023-09-13T08:57:19.002195</dc:date>
    <dc:format>image/svg+xml</dc:format>
    <dc:creator>
     <cc:Agent>
      <dc:title>Matplotlib v3.4.2, https://matplotlib.org/</dc:title>
     </cc:Agent>
    </dc:creator>
   </cc:Work>
  </rdf:RDF>
 </metadata>
 <defs>
  <style type="text/css">*{stroke-linecap:butt;stroke-linejoin:round;}</style>
 </defs>
 <g id="figure_1">
  <g id="patch_1">
   <path d="M 0 504 
L 864 504 
L 864 0 
L 0 0 
z
" style="fill:none;"/>
  </g>
  <g id="axes_1">
   <g id="patch_2">
    <path d="M 108 441 
L 777.6 441 
L 777.6 60.48 
L 108 60.48 
z
" style="fill:#ffffff;"/>
   </g>
   <g id="patch_3">
    <path clip-path="url(#p00b89916a0)" d="M 138.436364 441 
L 172.254545 441 
L 172.254545 380.910138 
L 138.436364 380.910138 
z
" style="fill:#3274a1;stroke:#000000;stroke-linejoin:miter;stroke-width:1.2;"/>
   </g>
   <g id="patch_4">
    <path clip-path="url(#p00b89916a0)" d="M 265.254545 441 
L 299.072727 441 
L 299.072727 330.038347 
L 265.254545 330.038347 
z
" style="fill:#3274a1;stroke:#000000;stroke-linejoin:miter;stroke-width:1.2;"/>
   </g>
   <g id="patch_5">
    <path clip-path="url(#p00b89916a0)" d="M 392.072727 441 
L 425.890909 441 
L 425.890909 412.547561 
L 392.072727 412.547561 
z
" style="fill:#3274a1;stroke:#000000;stroke-linejoin:miter;stroke-width:1.2;"/>
   </g>
   <g id="patch_6">
    <path clip-path="url(#p00b89916a0)" d="M 518.890909 441 
L 552.709091 441 
L 552.709091 367.015874 
L 518.890909 367.015874 
z
" style="fill:#3274a1;stroke:#000000;stroke-linejoin:miter;stroke-width:1.2;"/>
   </g>
   <g id="patch_7">
    <path clip-path="url(#p00b89916a0)" d="M 645.709091 441 
L 679.527273 441 
L 679.527273 426.441825 
L 645.709091 426.441825 
z
" style="fill:#3274a1;stroke:#000000;stroke-linejoin:miter;stroke-width:1.2;"/>
   </g>
   <g id="patch_8">
    <path clip-path="url(#p00b89916a0)" d="M 172.254545 441 
L 206.072727 441 
L 206.072727 364.297662 
L 172.254545 364.297662 
z
" style="fill:#e1812c;stroke:#000000;stroke-linejoin:miter;stroke-width:1.2;"/>
   </g>
   <g id="patch_9">
    <path clip-path="url(#p00b89916a0)" d="M 299.072727 441 
L 332.890909 441 
L 332.890909 332.734281 
L 299.072727 332.734281 
z
" style="fill:#e1812c;stroke:#000000;stroke-linejoin:miter;stroke-width:1.2;"/>
   </g>
   <g id="patch_10">
    <path clip-path="url(#p00b89916a0)" d="M 425.890909 441 
L 459.709091 441 
L 459.709091 80.385171 
L 425.890909 80.385171 
z
" style="fill:#e1812c;stroke:#000000;stroke-linejoin:miter;stroke-width:1.2;"/>
   </g>
   <g id="patch_11">
    <path clip-path="url(#p00b89916a0)" d="M 552.709091 441 
L 586.527273 441 
L 586.527273 225.644023 
L 552.709091 225.644023 
z
" style="fill:#e1812c;stroke:#000000;stroke-linejoin:miter;stroke-width:1.2;"/>
   </g>
   <g id="patch_12">
    <path clip-path="url(#p00b89916a0)" d="M 679.527273 441 
L 713.345455 441 
L 713.345455 219.038811 
L 679.527273 219.038811 
z
" style="fill:#e1812c;stroke:#000000;stroke-linejoin:miter;stroke-width:1.2;"/>
   </g>
   <g id="patch_13">
    <path clip-path="url(#p00b89916a0)" d="M 206.072727 441 
L 239.890909 441 
L 239.890909 352.316846 
L 206.072727 352.316846 
z
" style="fill:#3a923a;stroke:#000000;stroke-linejoin:miter;stroke-width:1.2;"/>
   </g>
   <g id="patch_14">
    <path clip-path="url(#p00b89916a0)" d="M 332.890909 441 
L 366.709091 441 
L 366.709091 368.432033 
L 332.890909 368.432033 
z
" style="fill:#3a923a;stroke:#000000;stroke-linejoin:miter;stroke-width:1.2;"/>
   </g>
   <g id="patch_15">
    <path clip-path="url(#p00b89916a0)" d="M 459.709091 441 
L 493.527273 441 
L 493.527273 416.245261 
L 459.709091 416.245261 
z
" style="fill:#3a923a;stroke:#000000;stroke-linejoin:miter;stroke-width:1.2;"/>
   </g>
   <g id="patch_16">
    <path clip-path="url(#p00b89916a0)" d="M 586.527273 441 
L 620.345455 441 
L 620.345455 340.768081 
L 586.527273 340.768081 
z
" style="fill:#3a923a;stroke:#000000;stroke-linejoin:miter;stroke-width:1.2;"/>
   </g>
   <g id="patch_17">
    <path clip-path="url(#p00b89916a0)" d="M 713.345455 441 
L 747.163636 441 
L 747.163636 427.794026 
L 713.345455 427.794026 
z
" style="fill:#3a923a;stroke:#000000;stroke-linejoin:miter;stroke-width:1.2;"/>
   </g>
   <g id="matplotlib.axis_1">
    <g id="xtick_1">
     <g id="line2d_1">
      <defs>
       <path d="M 0 0 
L 0 3.5 
" id="m7b267f8531" style="stroke:#000000;stroke-width:0.8;"/>
      </defs>
      <g>
       <use style="stroke:#000000;stroke-width:0.8;" x="189.163636" xlink:href="#m7b267f8531" y="441"/>
      </g>
     </g>
     <g id="text_1">
      <!-- X$\rightarrow$Y -->
      <g transform="translate(163.863636 463.196875)scale(0.2 -0.2)">
       <defs>
        <path d="M 403 4666 
L 1081 4666 
L 2241 2931 
L 3406 4666 
L 4084 4666 
L 2584 2425 
L 4184 0 
L 3506 0 
L 2194 1984 
L 872 0 
L 191 0 
L 1856 2491 
L 403 4666 
z
" id="DejaVuSans-58" transform="scale(0.015625)"/>
        <path d="M 5050 2147 
L 5050 1866 
L 3822 638 
L 3447 1013 
L 4175 1741 
L 366 1741 
L 366 2272 
L 4175 2272 
L 3447 3000 
L 3822 3375 
L 5050 2147 
z
" id="DejaVuSans-2192" transform="scale(0.015625)"/>
        <path d="M -13 4666 
L 666 4666 
L 1959 2747 
L 3244 4666 
L 3922 4666 
L 2272 2222 
L 2272 0 
L 1638 0 
L 1638 2222 
L -13 4666 
z
" id="DejaVuSans-59" transform="scale(0.015625)"/>
       </defs>
       <use transform="translate(0 0.09375)" xlink:href="#DejaVuSans-58"/>
       <use transform="translate(87.988281 0.09375)" xlink:href="#DejaVuSans-2192"/>
       <use transform="translate(191.259766 0.09375)" xlink:href="#DejaVuSans-59"/>
      </g>
     </g>
    </g>
    <g id="xtick_2">
     <g id="line2d_2">
      <g>
       <use style="stroke:#000000;stroke-width:0.8;" x="315.981818" xlink:href="#m7b267f8531" y="441"/>
      </g>
     </g>
     <g id="text_2">
      <!-- X$\rightarrow$M -->
      <g transform="translate(288.181818 463.196875)scale(0.2 -0.2)">
       <defs>
        <path d="M 628 4666 
L 1569 4666 
L 2759 1491 
L 3956 4666 
L 4897 4666 
L 4897 0 
L 4281 0 
L 4281 4097 
L 3078 897 
L 2444 897 
L 1241 4097 
L 1241 0 
L 628 0 
L 628 4666 
z
" id="DejaVuSans-4d" transform="scale(0.015625)"/>
       </defs>
       <use transform="translate(0 0.09375)" xlink:href="#DejaVuSans-58"/>
       <use transform="translate(87.988281 0.09375)" xlink:href="#DejaVuSans-2192"/>
       <use transform="translate(191.259766 0.09375)" xlink:href="#DejaVuSans-4d"/>
      </g>
     </g>
    </g>
    <g id="xtick_3">
     <g id="line2d_3">
      <g>
       <use style="stroke:#000000;stroke-width:0.8;" x="442.8" xlink:href="#m7b267f8531" y="441"/>
      </g>
     </g>
     <g id="text_3">
      <!-- M$\rightarrow$Y -->
      <g transform="translate(415.7 463.196875)scale(0.2 -0.2)">
       <use transform="translate(0 0.09375)" xlink:href="#DejaVuSans-4d"/>
       <use transform="translate(105.761719 0.09375)" xlink:href="#DejaVuSans-2192"/>
       <use transform="translate(209.033203 0.09375)" xlink:href="#DejaVuSans-59"/>
      </g>
     </g>
    </g>
    <g id="xtick_4">
     <g id="line2d_4">
      <g>
       <use style="stroke:#000000;stroke-width:0.8;" x="569.618182" xlink:href="#m7b267f8531" y="441"/>
      </g>
     </g>
     <g id="text_4">
      <!-- X + M $\rightarrow$ Y -->
      <g transform="translate(514.618182 463.196875)scale(0.2 -0.2)">
       <defs>
        <path id="DejaVuSans-20" transform="scale(0.015625)"/>
        <path d="M 2944 4013 
L 2944 2272 
L 4684 2272 
L 4684 1741 
L 2944 1741 
L 2944 0 
L 2419 0 
L 2419 1741 
L 678 1741 
L 678 2272 
L 2419 2272 
L 2419 4013 
L 2944 4013 
z
" id="DejaVuSans-2b" transform="scale(0.015625)"/>
       </defs>
       <use transform="translate(0 0.09375)" xlink:href="#DejaVuSans-58"/>
       <use transform="translate(68.505859 0.09375)" xlink:href="#DejaVuSans-20"/>
       <use transform="translate(100.292969 0.09375)" xlink:href="#DejaVuSans-2b"/>
       <use transform="translate(184.082031 0.09375)" xlink:href="#DejaVuSans-20"/>
       <use transform="translate(215.869141 0.09375)" xlink:href="#DejaVuSans-4d"/>
       <use transform="translate(302.148438 0.09375)" xlink:href="#DejaVuSans-20"/>
       <use transform="translate(353.417969 0.09375)" xlink:href="#DejaVuSans-2192"/>
       <use transform="translate(456.689453 0.09375)" xlink:href="#DejaVuSans-20"/>
       <use transform="translate(488.476562 0.09375)" xlink:href="#DejaVuSans-59"/>
      </g>
     </g>
    </g>
    <g id="xtick_5">
     <g id="line2d_5">
      <g>
       <use style="stroke:#000000;stroke-width:0.8;" x="696.436364" xlink:href="#m7b267f8531" y="441"/>
      </g>
     </g>
     <g id="text_5">
      <!-- Mediation  -->
      <g transform="translate(644.067614 463.196875)scale(0.2 -0.2)">
       <defs>
        <path d="M 3597 1894 
L 3597 1613 
L 953 1613 
Q 991 1019 1311 708 
Q 1631 397 2203 397 
Q 2534 397 2845 478 
Q 3156 559 3463 722 
L 3463 178 
Q 3153 47 2828 -22 
Q 2503 -91 2169 -91 
Q 1331 -91 842 396 
Q 353 884 353 1716 
Q 353 2575 817 3079 
Q 1281 3584 2069 3584 
Q 2775 3584 3186 3129 
Q 3597 2675 3597 1894 
z
M 3022 2063 
Q 3016 2534 2758 2815 
Q 2500 3097 2075 3097 
Q 1594 3097 1305 2825 
Q 1016 2553 972 2059 
L 3022 2063 
z
" id="DejaVuSans-65" transform="scale(0.015625)"/>
        <path d="M 2906 2969 
L 2906 4863 
L 3481 4863 
L 3481 0 
L 2906 0 
L 2906 525 
Q 2725 213 2448 61 
Q 2172 -91 1784 -91 
Q 1150 -91 751 415 
Q 353 922 353 1747 
Q 353 2572 751 3078 
Q 1150 3584 1784 3584 
Q 2172 3584 2448 3432 
Q 2725 3281 2906 2969 
z
M 947 1747 
Q 947 1113 1208 752 
Q 1469 391 1925 391 
Q 2381 391 2643 752 
Q 2906 1113 2906 1747 
Q 2906 2381 2643 2742 
Q 2381 3103 1925 3103 
Q 1469 3103 1208 2742 
Q 947 2381 947 1747 
z
" id="DejaVuSans-64" transform="scale(0.015625)"/>
        <path d="M 603 3500 
L 1178 3500 
L 1178 0 
L 603 0 
L 603 3500 
z
M 603 4863 
L 1178 4863 
L 1178 4134 
L 603 4134 
L 603 4863 
z
" id="DejaVuSans-69" transform="scale(0.015625)"/>
        <path d="M 2194 1759 
Q 1497 1759 1228 1600 
Q 959 1441 959 1056 
Q 959 750 1161 570 
Q 1363 391 1709 391 
Q 2188 391 2477 730 
Q 2766 1069 2766 1631 
L 2766 1759 
L 2194 1759 
z
M 3341 1997 
L 3341 0 
L 2766 0 
L 2766 531 
Q 2569 213 2275 61 
Q 1981 -91 1556 -91 
Q 1019 -91 701 211 
Q 384 513 384 1019 
Q 384 1609 779 1909 
Q 1175 2209 1959 2209 
L 2766 2209 
L 2766 2266 
Q 2766 2663 2505 2880 
Q 2244 3097 1772 3097 
Q 1472 3097 1187 3025 
Q 903 2953 641 2809 
L 641 3341 
Q 956 3463 1253 3523 
Q 1550 3584 1831 3584 
Q 2591 3584 2966 3190 
Q 3341 2797 3341 1997 
z
" id="DejaVuSans-61" transform="scale(0.015625)"/>
        <path d="M 1172 4494 
L 1172 3500 
L 2356 3500 
L 2356 3053 
L 1172 3053 
L 1172 1153 
Q 1172 725 1289 603 
Q 1406 481 1766 481 
L 2356 481 
L 2356 0 
L 1766 0 
Q 1100 0 847 248 
Q 594 497 594 1153 
L 594 3053 
L 172 3053 
L 172 3500 
L 594 3500 
L 594 4494 
L 1172 4494 
z
" id="DejaVuSans-74" transform="scale(0.015625)"/>
        <path d="M 1959 3097 
Q 1497 3097 1228 2736 
Q 959 2375 959 1747 
Q 959 1119 1226 758 
Q 1494 397 1959 397 
Q 2419 397 2687 759 
Q 2956 1122 2956 1747 
Q 2956 2369 2687 2733 
Q 2419 3097 1959 3097 
z
M 1959 3584 
Q 2709 3584 3137 3096 
Q 3566 2609 3566 1747 
Q 3566 888 3137 398 
Q 2709 -91 1959 -91 
Q 1206 -91 779 398 
Q 353 888 353 1747 
Q 353 2609 779 3096 
Q 1206 3584 1959 3584 
z
" id="DejaVuSans-6f" transform="scale(0.015625)"/>
        <path d="M 3513 2113 
L 3513 0 
L 2938 0 
L 2938 2094 
Q 2938 2591 2744 2837 
Q 2550 3084 2163 3084 
Q 1697 3084 1428 2787 
Q 1159 2491 1159 1978 
L 1159 0 
L 581 0 
L 581 3500 
L 1159 3500 
L 1159 2956 
Q 1366 3272 1645 3428 
Q 1925 3584 2291 3584 
Q 2894 3584 3203 3211 
Q 3513 2838 3513 2113 
z
" id="DejaVuSans-6e" transform="scale(0.015625)"/>
       </defs>
       <use xlink:href="#DejaVuSans-4d"/>
       <use x="86.279297" xlink:href="#DejaVuSans-65"/>
       <use x="147.802734" xlink:href="#DejaVuSans-64"/>
       <use x="211.279297" xlink:href="#DejaVuSans-69"/>
       <use x="239.0625" xlink:href="#DejaVuSans-61"/>
       <use x="300.341797" xlink:href="#DejaVuSans-74"/>
       <use x="339.550781" xlink:href="#DejaVuSans-69"/>
       <use x="367.333984" xlink:href="#DejaVuSans-6f"/>
       <use x="428.515625" xlink:href="#DejaVuSans-6e"/>
       <use x="491.894531" xlink:href="#DejaVuSans-20"/>
      </g>
      <!--  Effect -->
      <g transform="translate(664.326989 485.5925)scale(0.2 -0.2)">
       <defs>
        <path d="M 628 4666 
L 3578 4666 
L 3578 4134 
L 1259 4134 
L 1259 2753 
L 3481 2753 
L 3481 2222 
L 1259 2222 
L 1259 531 
L 3634 531 
L 3634 0 
L 628 0 
L 628 4666 
z
" id="DejaVuSans-45" transform="scale(0.015625)"/>
        <path d="M 2375 4863 
L 2375 4384 
L 1825 4384 
Q 1516 4384 1395 4259 
Q 1275 4134 1275 3809 
L 1275 3500 
L 2222 3500 
L 2222 3053 
L 1275 3053 
L 1275 0 
L 697 0 
L 697 3053 
L 147 3053 
L 147 3500 
L 697 3500 
L 697 3744 
Q 697 4328 969 4595 
Q 1241 4863 1831 4863 
L 2375 4863 
z
" id="DejaVuSans-66" transform="scale(0.015625)"/>
        <path d="M 3122 3366 
L 3122 2828 
Q 2878 2963 2633 3030 
Q 2388 3097 2138 3097 
Q 1578 3097 1268 2742 
Q 959 2388 959 1747 
Q 959 1106 1268 751 
Q 1578 397 2138 397 
Q 2388 397 2633 464 
Q 2878 531 3122 666 
L 3122 134 
Q 2881 22 2623 -34 
Q 2366 -91 2075 -91 
Q 1284 -91 818 406 
Q 353 903 353 1747 
Q 353 2603 823 3093 
Q 1294 3584 2113 3584 
Q 2378 3584 2631 3529 
Q 2884 3475 3122 3366 
z
" id="DejaVuSans-63" transform="scale(0.015625)"/>
       </defs>
       <use xlink:href="#DejaVuSans-20"/>
       <use x="31.787109" xlink:href="#DejaVuSans-45"/>
       <use x="94.970703" xlink:href="#DejaVuSans-66"/>
       <use x="130.175781" xlink:href="#DejaVuSans-66"/>
       <use x="165.380859" xlink:href="#DejaVuSans-65"/>
       <use x="226.904297" xlink:href="#DejaVuSans-63"/>
       <use x="281.884766" xlink:href="#DejaVuSans-74"/>
      </g>
     </g>
    </g>
   </g>
   <g id="matplotlib.axis_2">
    <g id="ytick_1">
     <g id="line2d_6">
      <defs>
       <path d="M 0 0 
L -3.5 0 
" id="m7ff5b7d22b" style="stroke:#000000;stroke-width:0.8;"/>
      </defs>
      <g>
       <use style="stroke:#000000;stroke-width:0.8;" x="108" xlink:href="#m7ff5b7d22b" y="441"/>
      </g>
     </g>
     <g id="text_6">
      <!-- 0 -->
      <g transform="translate(88.275 448.598437)scale(0.2 -0.2)">
       <defs>
        <path d="M 2034 4250 
Q 1547 4250 1301 3770 
Q 1056 3291 1056 2328 
Q 1056 1369 1301 889 
Q 1547 409 2034 409 
Q 2525 409 2770 889 
Q 3016 1369 3016 2328 
Q 3016 3291 2770 3770 
Q 2525 4250 2034 4250 
z
M 2034 4750 
Q 2819 4750 3233 4129 
Q 3647 3509 3647 2328 
Q 3647 1150 3233 529 
Q 2819 -91 2034 -91 
Q 1250 -91 836 529 
Q 422 1150 422 2328 
Q 422 3509 836 4129 
Q 1250 4750 2034 4750 
z
" id="DejaVuSans-30" transform="scale(0.015625)"/>
       </defs>
       <use xlink:href="#DejaVuSans-30"/>
      </g>
     </g>
    </g>
    <g id="ytick_2">
     <g id="line2d_7">
      <g>
       <use style="stroke:#000000;stroke-width:0.8;" x="108" xlink:href="#m7ff5b7d22b" y="380.062075"/>
      </g>
     </g>
     <g id="text_7">
      <!-- 0.02 -->
      <g transform="translate(56.46875 387.660513)scale(0.2 -0.2)">
       <defs>
        <path d="M 684 794 
L 1344 794 
L 1344 0 
L 684 0 
L 684 794 
z
" id="DejaVuSans-2e" transform="scale(0.015625)"/>
        <path d="M 1228 531 
L 3431 531 
L 3431 0 
L 469 0 
L 469 531 
Q 828 903 1448 1529 
Q 2069 2156 2228 2338 
Q 2531 2678 2651 2914 
Q 2772 3150 2772 3378 
Q 2772 3750 2511 3984 
Q 2250 4219 1831 4219 
Q 1534 4219 1204 4116 
Q 875 4013 500 3803 
L 500 4441 
Q 881 4594 1212 4672 
Q 1544 4750 1819 4750 
Q 2544 4750 2975 4387 
Q 3406 4025 3406 3419 
Q 3406 3131 3298 2873 
Q 3191 2616 2906 2266 
Q 2828 2175 2409 1742 
Q 1991 1309 1228 531 
z
" id="DejaVuSans-32" transform="scale(0.015625)"/>
       </defs>
       <use xlink:href="#DejaVuSans-30"/>
       <use x="63.623047" xlink:href="#DejaVuSans-2e"/>
       <use x="95.410156" xlink:href="#DejaVuSans-30"/>
       <use x="159.033203" xlink:href="#DejaVuSans-32"/>
      </g>
     </g>
    </g>
    <g id="ytick_3">
     <g id="line2d_8">
      <g>
       <use style="stroke:#000000;stroke-width:0.8;" x="108" xlink:href="#m7ff5b7d22b" y="319.12415"/>
      </g>
     </g>
     <g id="text_8">
      <!-- 0.04 -->
      <g transform="translate(56.46875 326.722588)scale(0.2 -0.2)">
       <defs>
        <path d="M 2419 4116 
L 825 1625 
L 2419 1625 
L 2419 4116 
z
M 2253 4666 
L 3047 4666 
L 3047 1625 
L 3713 1625 
L 3713 1100 
L 3047 1100 
L 3047 0 
L 2419 0 
L 2419 1100 
L 313 1100 
L 313 1709 
L 2253 4666 
z
" id="DejaVuSans-34" transform="scale(0.015625)"/>
       </defs>
       <use xlink:href="#DejaVuSans-30"/>
       <use x="63.623047" xlink:href="#DejaVuSans-2e"/>
       <use x="95.410156" xlink:href="#DejaVuSans-30"/>
       <use x="159.033203" xlink:href="#DejaVuSans-34"/>
      </g>
     </g>
    </g>
    <g id="ytick_4">
     <g id="line2d_9">
      <g>
       <use style="stroke:#000000;stroke-width:0.8;" x="108" xlink:href="#m7ff5b7d22b" y="258.186226"/>
      </g>
     </g>
     <g id="text_9">
      <!-- 0.06 -->
      <g transform="translate(56.46875 265.784663)scale(0.2 -0.2)">
       <defs>
        <path d="M 2113 2584 
Q 1688 2584 1439 2293 
Q 1191 2003 1191 1497 
Q 1191 994 1439 701 
Q 1688 409 2113 409 
Q 2538 409 2786 701 
Q 3034 994 3034 1497 
Q 3034 2003 2786 2293 
Q 2538 2584 2113 2584 
z
M 3366 4563 
L 3366 3988 
Q 3128 4100 2886 4159 
Q 2644 4219 2406 4219 
Q 1781 4219 1451 3797 
Q 1122 3375 1075 2522 
Q 1259 2794 1537 2939 
Q 1816 3084 2150 3084 
Q 2853 3084 3261 2657 
Q 3669 2231 3669 1497 
Q 3669 778 3244 343 
Q 2819 -91 2113 -91 
Q 1303 -91 875 529 
Q 447 1150 447 2328 
Q 447 3434 972 4092 
Q 1497 4750 2381 4750 
Q 2619 4750 2861 4703 
Q 3103 4656 3366 4563 
z
" id="DejaVuSans-36" transform="scale(0.015625)"/>
       </defs>
       <use xlink:href="#DejaVuSans-30"/>
       <use x="63.623047" xlink:href="#DejaVuSans-2e"/>
       <use x="95.410156" xlink:href="#DejaVuSans-30"/>
       <use x="159.033203" xlink:href="#DejaVuSans-36"/>
      </g>
     </g>
    </g>
    <g id="ytick_5">
     <g id="line2d_10">
      <g>
       <use style="stroke:#000000;stroke-width:0.8;" x="108" xlink:href="#m7ff5b7d22b" y="197.248301"/>
      </g>
     </g>
     <g id="text_10">
      <!-- 0.08 -->
      <g transform="translate(56.46875 204.846738)scale(0.2 -0.2)">
       <defs>
        <path d="M 2034 2216 
Q 1584 2216 1326 1975 
Q 1069 1734 1069 1313 
Q 1069 891 1326 650 
Q 1584 409 2034 409 
Q 2484 409 2743 651 
Q 3003 894 3003 1313 
Q 3003 1734 2745 1975 
Q 2488 2216 2034 2216 
z
M 1403 2484 
Q 997 2584 770 2862 
Q 544 3141 544 3541 
Q 544 4100 942 4425 
Q 1341 4750 2034 4750 
Q 2731 4750 3128 4425 
Q 3525 4100 3525 3541 
Q 3525 3141 3298 2862 
Q 3072 2584 2669 2484 
Q 3125 2378 3379 2068 
Q 3634 1759 3634 1313 
Q 3634 634 3220 271 
Q 2806 -91 2034 -91 
Q 1263 -91 848 271 
Q 434 634 434 1313 
Q 434 1759 690 2068 
Q 947 2378 1403 2484 
z
M 1172 3481 
Q 1172 3119 1398 2916 
Q 1625 2713 2034 2713 
Q 2441 2713 2670 2916 
Q 2900 3119 2900 3481 
Q 2900 3844 2670 4047 
Q 2441 4250 2034 4250 
Q 1625 4250 1398 4047 
Q 1172 3844 1172 3481 
z
" id="DejaVuSans-38" transform="scale(0.015625)"/>
       </defs>
       <use xlink:href="#DejaVuSans-30"/>
       <use x="63.623047" xlink:href="#DejaVuSans-2e"/>
       <use x="95.410156" xlink:href="#DejaVuSans-30"/>
       <use x="159.033203" xlink:href="#DejaVuSans-38"/>
      </g>
     </g>
    </g>
    <g id="ytick_6">
     <g id="line2d_11">
      <g>
       <use style="stroke:#000000;stroke-width:0.8;" x="108" xlink:href="#m7ff5b7d22b" y="136.310376"/>
      </g>
     </g>
     <g id="text_11">
      <!-- 0.1 -->
      <g transform="translate(69.19375 143.908814)scale(0.2 -0.2)">
       <defs>
        <path d="M 794 531 
L 1825 531 
L 1825 4091 
L 703 3866 
L 703 4441 
L 1819 4666 
L 2450 4666 
L 2450 531 
L 3481 531 
L 3481 0 
L 794 0 
L 794 531 
z
" id="DejaVuSans-31" transform="scale(0.015625)"/>
       </defs>
       <use xlink:href="#DejaVuSans-30"/>
       <use x="63.623047" xlink:href="#DejaVuSans-2e"/>
       <use x="95.410156" xlink:href="#DejaVuSans-31"/>
      </g>
     </g>
    </g>
    <g id="ytick_7">
     <g id="line2d_12">
      <g>
       <use style="stroke:#000000;stroke-width:0.8;" x="108" xlink:href="#m7ff5b7d22b" y="75.372451"/>
      </g>
     </g>
     <g id="text_12">
      <!-- 0.12 -->
      <g transform="translate(56.46875 82.970889)scale(0.2 -0.2)">
       <use xlink:href="#DejaVuSans-30"/>
       <use x="63.623047" xlink:href="#DejaVuSans-2e"/>
       <use x="95.410156" xlink:href="#DejaVuSans-31"/>
       <use x="159.033203" xlink:href="#DejaVuSans-32"/>
      </g>
     </g>
    </g>
    <g id="text_13">
     <!-- $R^2$ -->
     <g transform="translate(46.229687 269.34)rotate(-90)scale(0.3 -0.3)">
      <defs>
       <path d="M 1613 4147 
L 1294 2491 
L 2106 2491 
Q 2584 2491 2879 2755 
Q 3175 3019 3175 3444 
Q 3175 3784 2976 3965 
Q 2778 4147 2406 4147 
L 1613 4147 
z
M 2772 2241 
Q 2972 2194 3105 2009 
Q 3238 1825 3413 1275 
L 3809 0 
L 3144 0 
L 2778 1197 
Q 2638 1659 2453 1815 
Q 2269 1972 1888 1972 
L 1191 1972 
L 806 0 
L 172 0 
L 1081 4666 
L 2503 4666 
Q 3150 4666 3495 4373 
Q 3841 4081 3841 3531 
Q 3841 3044 3547 2687 
Q 3253 2331 2772 2241 
z
" id="DejaVuSans-Oblique-52" transform="scale(0.015625)"/>
      </defs>
      <use transform="translate(0 0.765625)" xlink:href="#DejaVuSans-Oblique-52"/>
      <use transform="translate(76.499193 39.046875)scale(0.7)" xlink:href="#DejaVuSans-32"/>
     </g>
    </g>
   </g>
   <g id="line2d_13">
    <path clip-path="url(#p00b89916a0)" d="M 155.345455 386.072638 
L 155.345455 375.747638 
" style="fill:none;stroke:#000000;stroke-linecap:square;stroke-width:2;"/>
   </g>
   <g id="line2d_14">
    <path clip-path="url(#p00b89916a0)" d="M 149.004545 386.072638 
L 161.686364 386.072638 
" style="fill:none;stroke:#000000;stroke-linecap:square;stroke-width:2;"/>
   </g>
   <g id="line2d_15">
    <path clip-path="url(#p00b89916a0)" d="M 149.004545 375.747638 
L 161.686364 375.747638 
" style="fill:none;stroke:#000000;stroke-linecap:square;stroke-width:2;"/>
   </g>
   <g id="line2d_16">
    <path clip-path="url(#p00b89916a0)" d="M 282.163636 352.302429 
L 282.163636 307.774265 
" style="fill:none;stroke:#000000;stroke-linecap:square;stroke-width:2;"/>
   </g>
   <g id="line2d_17">
    <path clip-path="url(#p00b89916a0)" d="M 275.822727 352.302429 
L 288.504545 352.302429 
" style="fill:none;stroke:#000000;stroke-linecap:square;stroke-width:2;"/>
   </g>
   <g id="line2d_18">
    <path clip-path="url(#p00b89916a0)" d="M 275.822727 307.774265 
L 288.504545 307.774265 
" style="fill:none;stroke:#000000;stroke-linecap:square;stroke-width:2;"/>
   </g>
   <g id="line2d_19">
    <path clip-path="url(#p00b89916a0)" d="M 408.981818 415.084904 
L 408.981818 410.010217 
" style="fill:none;stroke:#000000;stroke-linecap:square;stroke-width:2;"/>
   </g>
   <g id="line2d_20">
    <path clip-path="url(#p00b89916a0)" d="M 402.640909 415.084904 
L 415.322727 415.084904 
" style="fill:none;stroke:#000000;stroke-linecap:square;stroke-width:2;"/>
   </g>
   <g id="line2d_21">
    <path clip-path="url(#p00b89916a0)" d="M 402.640909 410.010217 
L 415.322727 410.010217 
" style="fill:none;stroke:#000000;stroke-linecap:square;stroke-width:2;"/>
   </g>
   <g id="line2d_22">
    <path clip-path="url(#p00b89916a0)" d="M 535.8 372.279671 
L 535.8 361.752077 
" style="fill:none;stroke:#000000;stroke-linecap:square;stroke-width:2;"/>
   </g>
   <g id="line2d_23">
    <path clip-path="url(#p00b89916a0)" d="M 529.459091 372.279671 
L 542.140909 372.279671 
" style="fill:none;stroke:#000000;stroke-linecap:square;stroke-width:2;"/>
   </g>
   <g id="line2d_24">
    <path clip-path="url(#p00b89916a0)" d="M 529.459091 361.752077 
L 542.140909 361.752077 
" style="fill:none;stroke:#000000;stroke-linecap:square;stroke-width:2;"/>
   </g>
   <g id="line2d_25">
    <path clip-path="url(#p00b89916a0)" d="M 662.618182 428.861434 
L 662.618182 424.022216 
" style="fill:none;stroke:#000000;stroke-linecap:square;stroke-width:2;"/>
   </g>
   <g id="line2d_26">
    <path clip-path="url(#p00b89916a0)" d="M 656.277273 428.861434 
L 668.959091 428.861434 
" style="fill:none;stroke:#000000;stroke-linecap:square;stroke-width:2;"/>
   </g>
   <g id="line2d_27">
    <path clip-path="url(#p00b89916a0)" d="M 656.277273 424.022216 
L 668.959091 424.022216 
" style="fill:none;stroke:#000000;stroke-linecap:square;stroke-width:2;"/>
   </g>
   <g id="line2d_28">
    <path clip-path="url(#p00b89916a0)" d="M 189.163636 387.102441 
L 189.163636 341.492884 
" style="fill:none;stroke:#000000;stroke-linecap:square;stroke-width:2;"/>
   </g>
   <g id="line2d_29">
    <path clip-path="url(#p00b89916a0)" d="M 182.822727 387.102441 
L 195.504545 387.102441 
" style="fill:none;stroke:#000000;stroke-linecap:square;stroke-width:2;"/>
   </g>
   <g id="line2d_30">
    <path clip-path="url(#p00b89916a0)" d="M 182.822727 341.492884 
L 195.504545 341.492884 
" style="fill:none;stroke:#000000;stroke-linecap:square;stroke-width:2;"/>
   </g>
   <g id="line2d_31">
    <path clip-path="url(#p00b89916a0)" d="M 315.981818 356.508348 
L 315.981818 308.960214 
" style="fill:none;stroke:#000000;stroke-linecap:square;stroke-width:2;"/>
   </g>
   <g id="line2d_32">
    <path clip-path="url(#p00b89916a0)" d="M 309.640909 356.508348 
L 322.322727 356.508348 
" style="fill:none;stroke:#000000;stroke-linecap:square;stroke-width:2;"/>
   </g>
   <g id="line2d_33">
    <path clip-path="url(#p00b89916a0)" d="M 309.640909 308.960214 
L 322.322727 308.960214 
" style="fill:none;stroke:#000000;stroke-linecap:square;stroke-width:2;"/>
   </g>
   <g id="line2d_34">
    <path clip-path="url(#p00b89916a0)" d="M 442.8 81.630383 
L 442.8 79.139959 
" style="fill:none;stroke:#000000;stroke-linecap:square;stroke-width:2;"/>
   </g>
   <g id="line2d_35">
    <path clip-path="url(#p00b89916a0)" d="M 436.459091 81.630383 
L 449.140909 81.630383 
" style="fill:none;stroke:#000000;stroke-linecap:square;stroke-width:2;"/>
   </g>
   <g id="line2d_36">
    <path clip-path="url(#p00b89916a0)" d="M 436.459091 79.139959 
L 449.140909 79.139959 
" style="fill:none;stroke:#000000;stroke-linecap:square;stroke-width:2;"/>
   </g>
   <g id="line2d_37">
    <path clip-path="url(#p00b89916a0)" d="M 569.618182 257.456564 
L 569.618182 193.831481 
" style="fill:none;stroke:#000000;stroke-linecap:square;stroke-width:2;"/>
   </g>
   <g id="line2d_38">
    <path clip-path="url(#p00b89916a0)" d="M 563.277273 257.456564 
L 575.959091 257.456564 
" style="fill:none;stroke:#000000;stroke-linecap:square;stroke-width:2;"/>
   </g>
   <g id="line2d_39">
    <path clip-path="url(#p00b89916a0)" d="M 563.277273 193.831481 
L 575.959091 193.831481 
" style="fill:none;stroke:#000000;stroke-linecap:square;stroke-width:2;"/>
   </g>
   <g id="line2d_40">
    <path clip-path="url(#p00b89916a0)" d="M 696.436364 228.683887 
L 696.436364 209.393734 
" style="fill:none;stroke:#000000;stroke-linecap:square;stroke-width:2;"/>
   </g>
   <g id="line2d_41">
    <path clip-path="url(#p00b89916a0)" d="M 690.095455 228.683887 
L 702.777273 228.683887 
" style="fill:none;stroke:#000000;stroke-linecap:square;stroke-width:2;"/>
   </g>
   <g id="line2d_42">
    <path clip-path="url(#p00b89916a0)" d="M 690.095455 209.393734 
L 702.777273 209.393734 
" style="fill:none;stroke:#000000;stroke-linecap:square;stroke-width:2;"/>
   </g>
   <g id="line2d_43">
    <path clip-path="url(#p00b89916a0)" d="M 222.981818 376.107483 
L 222.981818 328.526209 
" style="fill:none;stroke:#000000;stroke-linecap:square;stroke-width:2;"/>
   </g>
   <g id="line2d_44">
    <path clip-path="url(#p00b89916a0)" d="M 216.640909 376.107483 
L 229.322727 376.107483 
" style="fill:none;stroke:#000000;stroke-linecap:square;stroke-width:2;"/>
   </g>
   <g id="line2d_45">
    <path clip-path="url(#p00b89916a0)" d="M 216.640909 328.526209 
L 229.322727 328.526209 
" style="fill:none;stroke:#000000;stroke-linecap:square;stroke-width:2;"/>
   </g>
   <g id="line2d_46">
    <path clip-path="url(#p00b89916a0)" d="M 349.8 380.143404 
L 349.8 356.720661 
" style="fill:none;stroke:#000000;stroke-linecap:square;stroke-width:2;"/>
   </g>
   <g id="line2d_47">
    <path clip-path="url(#p00b89916a0)" d="M 343.459091 380.143404 
L 356.140909 380.143404 
" style="fill:none;stroke:#000000;stroke-linecap:square;stroke-width:2;"/>
   </g>
   <g id="line2d_48">
    <path clip-path="url(#p00b89916a0)" d="M 343.459091 356.720661 
L 356.140909 356.720661 
" style="fill:none;stroke:#000000;stroke-linecap:square;stroke-width:2;"/>
   </g>
   <g id="line2d_49">
    <path clip-path="url(#p00b89916a0)" d="M 476.618182 418.389834 
L 476.618182 414.100688 
" style="fill:none;stroke:#000000;stroke-linecap:square;stroke-width:2;"/>
   </g>
   <g id="line2d_50">
    <path clip-path="url(#p00b89916a0)" d="M 470.277273 418.389834 
L 482.959091 418.389834 
" style="fill:none;stroke:#000000;stroke-linecap:square;stroke-width:2;"/>
   </g>
   <g id="line2d_51">
    <path clip-path="url(#p00b89916a0)" d="M 470.277273 414.100688 
L 482.959091 414.100688 
" style="fill:none;stroke:#000000;stroke-linecap:square;stroke-width:2;"/>
   </g>
   <g id="line2d_52">
    <path clip-path="url(#p00b89916a0)" d="M 603.436364 366.854374 
L 603.436364 314.681787 
" style="fill:none;stroke:#000000;stroke-linecap:square;stroke-width:2;"/>
   </g>
   <g id="line2d_53">
    <path clip-path="url(#p00b89916a0)" d="M 597.095455 366.854374 
L 609.777273 366.854374 
" style="fill:none;stroke:#000000;stroke-linecap:square;stroke-width:2;"/>
   </g>
   <g id="line2d_54">
    <path clip-path="url(#p00b89916a0)" d="M 597.095455 314.681787 
L 609.777273 314.681787 
" style="fill:none;stroke:#000000;stroke-linecap:square;stroke-width:2;"/>
   </g>
   <g id="line2d_55">
    <path clip-path="url(#p00b89916a0)" d="M 730.254545 429.088136 
L 730.254545 426.499917 
" style="fill:none;stroke:#000000;stroke-linecap:square;stroke-width:2;"/>
   </g>
   <g id="line2d_56">
    <path clip-path="url(#p00b89916a0)" d="M 723.913636 429.088136 
L 736.595455 429.088136 
" style="fill:none;stroke:#000000;stroke-linecap:square;stroke-width:2;"/>
   </g>
   <g id="line2d_57">
    <path clip-path="url(#p00b89916a0)" d="M 723.913636 426.499917 
L 736.595455 426.499917 
" style="fill:none;stroke:#000000;stroke-linecap:square;stroke-width:2;"/>
   </g>
   <g id="patch_18">
    <path d="M 108 441 
L 108 60.48 
" style="fill:none;stroke:#000000;stroke-linecap:square;stroke-linejoin:miter;stroke-width:0.8;"/>
   </g>
   <g id="patch_19">
    <path d="M 777.6 441 
L 777.6 60.48 
" style="fill:none;stroke:#000000;stroke-linecap:square;stroke-linejoin:miter;stroke-width:0.8;"/>
   </g>
   <g id="patch_20">
    <path d="M 108 441 
L 777.6 441 
" style="fill:none;stroke:#000000;stroke-linecap:square;stroke-linejoin:miter;stroke-width:0.8;"/>
   </g>
   <g id="patch_21">
    <path d="M 108 60.48 
L 777.6 60.48 
" style="fill:none;stroke:#000000;stroke-linecap:square;stroke-linejoin:miter;stroke-width:0.8;"/>
   </g>
   <g id="PathCollection_1">
    <defs>
     <path d="M 0 5 
C 1.326016 5 2.597899 4.473168 3.535534 3.535534 
C 4.473168 2.597899 5 1.326016 5 0 
C 5 -1.326016 4.473168 -2.597899 3.535534 -3.535534 
C 2.597899 -4.473168 1.326016 -5 0 -5 
C -1.326016 -5 -2.597899 -4.473168 -3.535534 -3.535534 
C -4.473168 -2.597899 -5 -1.326016 -5 0 
C -5 1.326016 -4.473168 2.597899 -3.535534 3.535534 
C -2.597899 4.473168 -1.326016 5 0 5 
z
" id="m2e09900545" style="stroke:#000000;stroke-width:2;"/>
    </defs>
    <g clip-path="url(#p00b89916a0)">
     <use style="fill:#ffffff;stroke:#000000;stroke-width:2;" x="155.345455" xlink:href="#m2e09900545" y="375.81203"/>
     <use style="fill:#ffffff;stroke:#000000;stroke-width:2;" x="155.345455" xlink:href="#m2e09900545" y="388.624605"/>
     <use style="fill:#ffffff;stroke:#000000;stroke-width:2;" x="155.345455" xlink:href="#m2e09900545" y="379.815632"/>
     <use style="fill:#ffffff;stroke:#000000;stroke-width:2;" x="155.345455" xlink:href="#m2e09900545" y="375.384899"/>
     <use style="fill:#ffffff;stroke:#000000;stroke-width:2;" x="155.345455" xlink:href="#m2e09900545" y="384.913526"/>
    </g>
   </g>
   <g id="PathCollection_2">
    <g clip-path="url(#p00b89916a0)">
     <use style="fill:#ffffff;stroke:#000000;stroke-width:2;" x="282.163636" xlink:href="#m2e09900545" y="325.990591"/>
     <use style="fill:#ffffff;stroke:#000000;stroke-width:2;" x="282.163636" xlink:href="#m2e09900545" y="356.086204"/>
     <use style="fill:#ffffff;stroke:#000000;stroke-width:2;" x="282.163636" xlink:href="#m2e09900545" y="322.814145"/>
     <use style="fill:#ffffff;stroke:#000000;stroke-width:2;" x="282.163636" xlink:href="#m2e09900545" y="294.170414"/>
     <use style="fill:#ffffff;stroke:#000000;stroke-width:2;" x="282.163636" xlink:href="#m2e09900545" y="351.13038"/>
    </g>
   </g>
   <g id="PathCollection_3">
    <g clip-path="url(#p00b89916a0)">
     <use style="fill:#ffffff;stroke:#000000;stroke-width:2;" x="408.981818" xlink:href="#m2e09900545" y="411.479395"/>
     <use style="fill:#ffffff;stroke:#000000;stroke-width:2;" x="408.981818" xlink:href="#m2e09900545" y="411.458179"/>
     <use style="fill:#ffffff;stroke:#000000;stroke-width:2;" x="408.981818" xlink:href="#m2e09900545" y="410.482568"/>
     <use style="fill:#ffffff;stroke:#000000;stroke-width:2;" x="408.981818" xlink:href="#m2e09900545" y="417.547058"/>
     <use style="fill:#ffffff;stroke:#000000;stroke-width:2;" x="408.981818" xlink:href="#m2e09900545" y="411.770603"/>
    </g>
   </g>
   <g id="PathCollection_4">
    <g clip-path="url(#p00b89916a0)">
     <use style="fill:#ffffff;stroke:#000000;stroke-width:2;" x="535.8" xlink:href="#m2e09900545" y="359.486491"/>
     <use style="fill:#ffffff;stroke:#000000;stroke-width:2;" x="535.8" xlink:href="#m2e09900545" y="375.95861"/>
     <use style="fill:#ffffff;stroke:#000000;stroke-width:2;" x="535.8" xlink:href="#m2e09900545" y="367.06442"/>
     <use style="fill:#ffffff;stroke:#000000;stroke-width:2;" x="535.8" xlink:href="#m2e09900545" y="365.651387"/>
     <use style="fill:#ffffff;stroke:#000000;stroke-width:2;" x="535.8" xlink:href="#m2e09900545" y="366.918463"/>
    </g>
   </g>
   <g id="PathCollection_5">
    <g clip-path="url(#p00b89916a0)">
     <use style="fill:#ffffff;stroke:#000000;stroke-width:2;" x="662.618182" xlink:href="#m2e09900545" y="427.804933"/>
     <use style="fill:#ffffff;stroke:#000000;stroke-width:2;" x="662.618182" xlink:href="#m2e09900545" y="424.124174"/>
     <use style="fill:#ffffff;stroke:#000000;stroke-width:2;" x="662.618182" xlink:href="#m2e09900545" y="423.23378"/>
     <use style="fill:#ffffff;stroke:#000000;stroke-width:2;" x="662.618182" xlink:href="#m2e09900545" y="427.280571"/>
     <use style="fill:#ffffff;stroke:#000000;stroke-width:2;" x="662.618182" xlink:href="#m2e09900545" y="429.765667"/>
    </g>
   </g>
   <g id="PathCollection_6">
    <g clip-path="url(#p00b89916a0)">
     <use style="fill:#ffffff;stroke:#000000;stroke-width:2;" x="189.163636" xlink:href="#m2e09900545" y="332.182322"/>
     <use style="fill:#ffffff;stroke:#000000;stroke-width:2;" x="189.163636" xlink:href="#m2e09900545" y="381.387776"/>
     <use style="fill:#ffffff;stroke:#000000;stroke-width:2;" x="189.163636" xlink:href="#m2e09900545" y="347.769514"/>
     <use style="fill:#ffffff;stroke:#000000;stroke-width:2;" x="189.163636" xlink:href="#m2e09900545" y="364.170968"/>
     <use style="fill:#ffffff;stroke:#000000;stroke-width:2;" x="189.163636" xlink:href="#m2e09900545" y="395.977732"/>
    </g>
   </g>
   <g id="PathCollection_7">
    <g clip-path="url(#p00b89916a0)">
     <use style="fill:#ffffff;stroke:#000000;stroke-width:2;" x="315.981818" xlink:href="#m2e09900545" y="336.541488"/>
     <use style="fill:#ffffff;stroke:#000000;stroke-width:2;" x="315.981818" xlink:href="#m2e09900545" y="316.794022"/>
     <use style="fill:#ffffff;stroke:#000000;stroke-width:2;" x="315.981818" xlink:href="#m2e09900545" y="308.372063"/>
     <use style="fill:#ffffff;stroke:#000000;stroke-width:2;" x="315.981818" xlink:href="#m2e09900545" y="376.457144"/>
     <use style="fill:#ffffff;stroke:#000000;stroke-width:2;" x="315.981818" xlink:href="#m2e09900545" y="325.506688"/>
    </g>
   </g>
   <g id="PathCollection_8">
    <g clip-path="url(#p00b89916a0)">
     <use style="fill:#ffffff;stroke:#000000;stroke-width:2;" x="442.8" xlink:href="#m2e09900545" y="79.880168"/>
     <use style="fill:#ffffff;stroke:#000000;stroke-width:2;" x="442.8" xlink:href="#m2e09900545" y="80.577889"/>
     <use style="fill:#ffffff;stroke:#000000;stroke-width:2;" x="442.8" xlink:href="#m2e09900545" y="78.6"/>
     <use style="fill:#ffffff;stroke:#000000;stroke-width:2;" x="442.8" xlink:href="#m2e09900545" y="80.415545"/>
     <use style="fill:#ffffff;stroke:#000000;stroke-width:2;" x="442.8" xlink:href="#m2e09900545" y="82.452256"/>
    </g>
   </g>
   <g id="PathCollection_9">
    <g clip-path="url(#p00b89916a0)">
     <use style="fill:#ffffff;stroke:#000000;stroke-width:2;" x="569.618182" xlink:href="#m2e09900545" y="177.856096"/>
     <use style="fill:#ffffff;stroke:#000000;stroke-width:2;" x="569.618182" xlink:href="#m2e09900545" y="242.439537"/>
     <use style="fill:#ffffff;stroke:#000000;stroke-width:2;" x="569.618182" xlink:href="#m2e09900545" y="212.071049"/>
     <use style="fill:#ffffff;stroke:#000000;stroke-width:2;" x="569.618182" xlink:href="#m2e09900545" y="222.263987"/>
     <use style="fill:#ffffff;stroke:#000000;stroke-width:2;" x="569.618182" xlink:href="#m2e09900545" y="273.589445"/>
    </g>
   </g>
   <g id="PathCollection_10">
    <g clip-path="url(#p00b89916a0)">
     <use style="fill:#ffffff;stroke:#000000;stroke-width:2;" x="696.436364" xlink:href="#m2e09900545" y="234.206393"/>
     <use style="fill:#ffffff;stroke:#000000;stroke-width:2;" x="696.436364" xlink:href="#m2e09900545" y="219.526128"/>
     <use style="fill:#ffffff;stroke:#000000;stroke-width:2;" x="696.436364" xlink:href="#m2e09900545" y="214.298464"/>
     <use style="fill:#ffffff;stroke:#000000;stroke-width:2;" x="696.436364" xlink:href="#m2e09900545" y="222.322526"/>
     <use style="fill:#ffffff;stroke:#000000;stroke-width:2;" x="696.436364" xlink:href="#m2e09900545" y="204.840542"/>
    </g>
   </g>
   <g id="PathCollection_11">
    <g clip-path="url(#p00b89916a0)">
     <use style="fill:#ffffff;stroke:#000000;stroke-width:2;" x="222.981818" xlink:href="#m2e09900545" y="336.623744"/>
     <use style="fill:#ffffff;stroke:#000000;stroke-width:2;" x="222.981818" xlink:href="#m2e09900545" y="398.985474"/>
     <use style="fill:#ffffff;stroke:#000000;stroke-width:2;" x="222.981818" xlink:href="#m2e09900545" y="342.78977"/>
     <use style="fill:#ffffff;stroke:#000000;stroke-width:2;" x="222.981818" xlink:href="#m2e09900545" y="348.110082"/>
     <use style="fill:#ffffff;stroke:#000000;stroke-width:2;" x="222.981818" xlink:href="#m2e09900545" y="335.075163"/>
    </g>
   </g>
   <g id="PathCollection_12">
    <g clip-path="url(#p00b89916a0)">
     <use style="fill:#ffffff;stroke:#000000;stroke-width:2;" x="349.8" xlink:href="#m2e09900545" y="372.553214"/>
     <use style="fill:#ffffff;stroke:#000000;stroke-width:2;" x="349.8" xlink:href="#m2e09900545" y="349.096538"/>
     <use style="fill:#ffffff;stroke:#000000;stroke-width:2;" x="349.8" xlink:href="#m2e09900545" y="379.620181"/>
     <use style="fill:#ffffff;stroke:#000000;stroke-width:2;" x="349.8" xlink:href="#m2e09900545" y="361.454677"/>
     <use style="fill:#ffffff;stroke:#000000;stroke-width:2;" x="349.8" xlink:href="#m2e09900545" y="379.435554"/>
    </g>
   </g>
   <g id="PathCollection_13">
    <g clip-path="url(#p00b89916a0)">
     <use style="fill:#ffffff;stroke:#000000;stroke-width:2;" x="476.618182" xlink:href="#m2e09900545" y="415.491495"/>
     <use style="fill:#ffffff;stroke:#000000;stroke-width:2;" x="476.618182" xlink:href="#m2e09900545" y="420.26508"/>
     <use style="fill:#ffffff;stroke:#000000;stroke-width:2;" x="476.618182" xlink:href="#m2e09900545" y="415.90312"/>
     <use style="fill:#ffffff;stroke:#000000;stroke-width:2;" x="476.618182" xlink:href="#m2e09900545" y="415.752109"/>
     <use style="fill:#ffffff;stroke:#000000;stroke-width:2;" x="476.618182" xlink:href="#m2e09900545" y="413.814502"/>
    </g>
   </g>
   <g id="PathCollection_14">
    <g clip-path="url(#p00b89916a0)">
     <use style="fill:#ffffff;stroke:#000000;stroke-width:2;" x="603.436364" xlink:href="#m2e09900545" y="323.6938"/>
     <use style="fill:#ffffff;stroke:#000000;stroke-width:2;" x="603.436364" xlink:href="#m2e09900545" y="392.189064"/>
     <use style="fill:#ffffff;stroke:#000000;stroke-width:2;" x="603.436364" xlink:href="#m2e09900545" y="329.357189"/>
     <use style="fill:#ffffff;stroke:#000000;stroke-width:2;" x="603.436364" xlink:href="#m2e09900545" y="335.366096"/>
     <use style="fill:#ffffff;stroke:#000000;stroke-width:2;" x="603.436364" xlink:href="#m2e09900545" y="323.234255"/>
    </g>
   </g>
   <g id="PathCollection_15">
    <g clip-path="url(#p00b89916a0)">
     <use style="fill:#ffffff;stroke:#000000;stroke-width:2;" x="730.254545" xlink:href="#m2e09900545" y="428.421438"/>
     <use style="fill:#ffffff;stroke:#000000;stroke-width:2;" x="730.254545" xlink:href="#m2e09900545" y="427.06149"/>
     <use style="fill:#ffffff;stroke:#000000;stroke-width:2;" x="730.254545" xlink:href="#m2e09900545" y="429.3357"/>
     <use style="fill:#ffffff;stroke:#000000;stroke-width:2;" x="730.254545" xlink:href="#m2e09900545" y="428.496095"/>
     <use style="fill:#ffffff;stroke:#000000;stroke-width:2;" x="730.254545" xlink:href="#m2e09900545" y="425.65541"/>
    </g>
   </g>
   <g id="text_14">
    <!-- Mediation effect$\equiv$ -->
    <g transform="translate(493.527273 92.679395)scale(0.22 -0.22)">
     <defs>
      <path d="M 475 0 
L 475 4581 
L 1388 4581 
L 2472 1338 
Q 2622 884 2691 659 
Q 2769 909 2934 1394 
L 4031 4581 
L 4847 4581 
L 4847 0 
L 4263 0 
L 4263 3834 
L 2931 0 
L 2384 0 
L 1059 3900 
L 1059 0 
L 475 0 
z
" id="ArialMT-4d" transform="scale(0.015625)"/>
      <path d="M 2694 1069 
L 3275 997 
Q 3138 488 2766 206 
Q 2394 -75 1816 -75 
Q 1088 -75 661 373 
Q 234 822 234 1631 
Q 234 2469 665 2931 
Q 1097 3394 1784 3394 
Q 2450 3394 2872 2941 
Q 3294 2488 3294 1666 
Q 3294 1616 3291 1516 
L 816 1516 
Q 847 969 1125 678 
Q 1403 388 1819 388 
Q 2128 388 2347 550 
Q 2566 713 2694 1069 
z
M 847 1978 
L 2700 1978 
Q 2663 2397 2488 2606 
Q 2219 2931 1791 2931 
Q 1403 2931 1139 2672 
Q 875 2413 847 1978 
z
" id="ArialMT-65" transform="scale(0.015625)"/>
      <path d="M 2575 0 
L 2575 419 
Q 2259 -75 1647 -75 
Q 1250 -75 917 144 
Q 584 363 401 755 
Q 219 1147 219 1656 
Q 219 2153 384 2558 
Q 550 2963 881 3178 
Q 1213 3394 1622 3394 
Q 1922 3394 2156 3267 
Q 2391 3141 2538 2938 
L 2538 4581 
L 3097 4581 
L 3097 0 
L 2575 0 
z
M 797 1656 
Q 797 1019 1065 703 
Q 1334 388 1700 388 
Q 2069 388 2326 689 
Q 2584 991 2584 1609 
Q 2584 2291 2321 2609 
Q 2059 2928 1675 2928 
Q 1300 2928 1048 2622 
Q 797 2316 797 1656 
z
" id="ArialMT-64" transform="scale(0.015625)"/>
      <path d="M 425 3934 
L 425 4581 
L 988 4581 
L 988 3934 
L 425 3934 
z
M 425 0 
L 425 3319 
L 988 3319 
L 988 0 
L 425 0 
z
" id="ArialMT-69" transform="scale(0.015625)"/>
      <path d="M 2588 409 
Q 2275 144 1986 34 
Q 1697 -75 1366 -75 
Q 819 -75 525 192 
Q 231 459 231 875 
Q 231 1119 342 1320 
Q 453 1522 633 1644 
Q 813 1766 1038 1828 
Q 1203 1872 1538 1913 
Q 2219 1994 2541 2106 
Q 2544 2222 2544 2253 
Q 2544 2597 2384 2738 
Q 2169 2928 1744 2928 
Q 1347 2928 1158 2789 
Q 969 2650 878 2297 
L 328 2372 
Q 403 2725 575 2942 
Q 747 3159 1072 3276 
Q 1397 3394 1825 3394 
Q 2250 3394 2515 3294 
Q 2781 3194 2906 3042 
Q 3031 2891 3081 2659 
Q 3109 2516 3109 2141 
L 3109 1391 
Q 3109 606 3145 398 
Q 3181 191 3288 0 
L 2700 0 
Q 2613 175 2588 409 
z
M 2541 1666 
Q 2234 1541 1622 1453 
Q 1275 1403 1131 1340 
Q 988 1278 909 1158 
Q 831 1038 831 891 
Q 831 666 1001 516 
Q 1172 366 1500 366 
Q 1825 366 2078 508 
Q 2331 650 2450 897 
Q 2541 1088 2541 1459 
L 2541 1666 
z
" id="ArialMT-61" transform="scale(0.015625)"/>
      <path d="M 1650 503 
L 1731 6 
Q 1494 -44 1306 -44 
Q 1000 -44 831 53 
Q 663 150 594 308 
Q 525 466 525 972 
L 525 2881 
L 113 2881 
L 113 3319 
L 525 3319 
L 525 4141 
L 1084 4478 
L 1084 3319 
L 1650 3319 
L 1650 2881 
L 1084 2881 
L 1084 941 
Q 1084 700 1114 631 
Q 1144 563 1211 522 
Q 1278 481 1403 481 
Q 1497 481 1650 503 
z
" id="ArialMT-74" transform="scale(0.015625)"/>
      <path d="M 213 1659 
Q 213 2581 725 3025 
Q 1153 3394 1769 3394 
Q 2453 3394 2887 2945 
Q 3322 2497 3322 1706 
Q 3322 1066 3130 698 
Q 2938 331 2570 128 
Q 2203 -75 1769 -75 
Q 1072 -75 642 372 
Q 213 819 213 1659 
z
M 791 1659 
Q 791 1022 1069 705 
Q 1347 388 1769 388 
Q 2188 388 2466 706 
Q 2744 1025 2744 1678 
Q 2744 2294 2464 2611 
Q 2184 2928 1769 2928 
Q 1347 2928 1069 2612 
Q 791 2297 791 1659 
z
" id="ArialMT-6f" transform="scale(0.015625)"/>
      <path d="M 422 0 
L 422 3319 
L 928 3319 
L 928 2847 
Q 1294 3394 1984 3394 
Q 2284 3394 2536 3286 
Q 2788 3178 2913 3003 
Q 3038 2828 3088 2588 
Q 3119 2431 3119 2041 
L 3119 0 
L 2556 0 
L 2556 2019 
Q 2556 2363 2490 2533 
Q 2425 2703 2258 2804 
Q 2091 2906 1866 2906 
Q 1506 2906 1245 2678 
Q 984 2450 984 1813 
L 984 0 
L 422 0 
z
" id="ArialMT-6e" transform="scale(0.015625)"/>
      <path id="ArialMT-20" transform="scale(0.015625)"/>
      <path d="M 556 0 
L 556 2881 
L 59 2881 
L 59 3319 
L 556 3319 
L 556 3672 
Q 556 4006 616 4169 
Q 697 4388 901 4523 
Q 1106 4659 1475 4659 
Q 1713 4659 2000 4603 
L 1916 4113 
Q 1741 4144 1584 4144 
Q 1328 4144 1222 4034 
Q 1116 3925 1116 3625 
L 1116 3319 
L 1763 3319 
L 1763 2881 
L 1116 2881 
L 1116 0 
L 556 0 
z
" id="ArialMT-66" transform="scale(0.015625)"/>
      <path d="M 2588 1216 
L 3141 1144 
Q 3050 572 2676 248 
Q 2303 -75 1759 -75 
Q 1078 -75 664 370 
Q 250 816 250 1647 
Q 250 2184 428 2587 
Q 606 2991 970 3192 
Q 1334 3394 1763 3394 
Q 2303 3394 2647 3120 
Q 2991 2847 3088 2344 
L 2541 2259 
Q 2463 2594 2264 2762 
Q 2066 2931 1784 2931 
Q 1359 2931 1093 2626 
Q 828 2322 828 1663 
Q 828 994 1084 691 
Q 1341 388 1753 388 
Q 2084 388 2306 591 
Q 2528 794 2588 1216 
z
" id="ArialMT-63" transform="scale(0.015625)"/>
      <path d="M 678 2272 
L 4684 2272 
L 4684 1741 
L 678 1741 
L 678 2272 
z
M 678 3438 
L 4684 3438 
L 4684 2906 
L 678 2906 
L 678 3438 
z
M 678 1106 
L 4684 1106 
L 4684 575 
L 678 575 
L 678 1106 
z
" id="DejaVuSans-2261" transform="scale(0.015625)"/>
     </defs>
     <use transform="translate(0 0.203125)" xlink:href="#ArialMT-4d"/>
     <use transform="translate(83.300781 0.203125)" xlink:href="#ArialMT-65"/>
     <use transform="translate(138.916016 0.203125)" xlink:href="#ArialMT-64"/>
     <use transform="translate(194.53125 0.203125)" xlink:href="#ArialMT-69"/>
     <use transform="translate(216.748047 0.203125)" xlink:href="#ArialMT-61"/>
     <use transform="translate(272.363281 0.203125)" xlink:href="#ArialMT-74"/>
     <use transform="translate(300.146484 0.203125)" xlink:href="#ArialMT-69"/>
     <use transform="translate(322.363281 0.203125)" xlink:href="#ArialMT-6f"/>
     <use transform="translate(377.978516 0.203125)" xlink:href="#ArialMT-6e"/>
     <use transform="translate(433.59375 0.203125)" xlink:href="#ArialMT-20"/>
     <use transform="translate(461.376953 0.203125)" xlink:href="#ArialMT-65"/>
     <use transform="translate(516.992188 0.203125)" xlink:href="#ArialMT-66"/>
     <use transform="translate(544.775391 0.203125)" xlink:href="#ArialMT-66"/>
     <use transform="translate(572.558594 0.203125)" xlink:href="#ArialMT-65"/>
     <use transform="translate(628.173828 0.203125)" xlink:href="#ArialMT-63"/>
     <use transform="translate(678.173828 0.203125)" xlink:href="#ArialMT-74"/>
     <use transform="translate(725.439453 0.203125)" xlink:href="#DejaVuSans-2261"/>
    </g>
    <!-- $R^2_{M\rightarrow Y} - (R^2_{X+M\rightarrow Y} - R^2_{X\rightarrow Y})$ -->
    <g transform="translate(493.527273 121.075895)scale(0.22 -0.22)">
     <defs>
      <path d="M 1081 4666 
L 2028 4666 
L 2572 1522 
L 4378 4666 
L 5350 4666 
L 4441 0 
L 3828 0 
L 4622 4091 
L 2791 897 
L 2175 897 
L 1581 4103 
L 788 0 
L 172 0 
L 1081 4666 
z
" id="DejaVuSans-Oblique-4d" transform="scale(0.015625)"/>
      <path d="M 403 4666 
L 1081 4666 
L 1953 2747 
L 3616 4666 
L 4325 4666 
L 2209 2222 
L 1778 0 
L 1147 0 
L 1575 2222 
L 403 4666 
z
" id="DejaVuSans-Oblique-59" transform="scale(0.015625)"/>
      <path d="M 678 2272 
L 4684 2272 
L 4684 1741 
L 678 1741 
L 678 2272 
z
" id="DejaVuSans-2212" transform="scale(0.015625)"/>
      <path d="M 1984 4856 
Q 1566 4138 1362 3434 
Q 1159 2731 1159 2009 
Q 1159 1288 1364 580 
Q 1569 -128 1984 -844 
L 1484 -844 
Q 1016 -109 783 600 
Q 550 1309 550 2009 
Q 550 2706 781 3412 
Q 1013 4119 1484 4856 
L 1984 4856 
z
" id="DejaVuSans-28" transform="scale(0.015625)"/>
      <path d="M 878 4666 
L 1516 4666 
L 2316 2981 
L 3763 4666 
L 4500 4666 
L 2578 2438 
L 3738 0 
L 3103 0 
L 2163 1966 
L 459 0 
L -275 0 
L 1906 2509 
L 878 4666 
z
" id="DejaVuSans-Oblique-58" transform="scale(0.015625)"/>
      <path d="M 513 4856 
L 1013 4856 
Q 1481 4119 1714 3412 
Q 1947 2706 1947 2009 
Q 1947 1309 1714 600 
Q 1481 -109 1013 -844 
L 513 -844 
Q 928 -128 1133 580 
Q 1338 1288 1338 2009 
Q 1338 2731 1133 3434 
Q 928 4138 513 4856 
z
" id="DejaVuSans-29" transform="scale(0.015625)"/>
     </defs>
     <use transform="translate(0 0.765625)" xlink:href="#DejaVuSans-Oblique-52"/>
     <use transform="translate(76.499193 39.046875)scale(0.7)" xlink:href="#DejaVuSans-32"/>
     <use transform="translate(69.482422 -26.578125)scale(0.7)" xlink:href="#DejaVuSans-Oblique-4d"/>
     <use transform="translate(143.515625 -26.578125)scale(0.7)" xlink:href="#DejaVuSans-2192"/>
     <use transform="translate(215.805664 -26.578125)scale(0.7)" xlink:href="#DejaVuSans-Oblique-59"/>
     <use transform="translate(280.78125 0.765625)" xlink:href="#DejaVuSans-2212"/>
     <use transform="translate(384.052734 0.765625)" xlink:href="#DejaVuSans-28"/>
     <use transform="translate(423.066406 0.765625)" xlink:href="#DejaVuSans-Oblique-52"/>
     <use transform="translate(499.565599 39.046875)scale(0.7)" xlink:href="#DejaVuSans-32"/>
     <use transform="translate(492.548828 -26.578125)scale(0.7)" xlink:href="#DejaVuSans-Oblique-58"/>
     <use transform="translate(554.140625 -26.578125)scale(0.7)" xlink:href="#DejaVuSans-2b"/>
     <use transform="translate(626.430664 -26.578125)scale(0.7)" xlink:href="#DejaVuSans-Oblique-4d"/>
     <use transform="translate(700.463867 -26.578125)scale(0.7)" xlink:href="#DejaVuSans-2192"/>
     <use transform="translate(772.753906 -26.578125)scale(0.7)" xlink:href="#DejaVuSans-Oblique-59"/>
     <use transform="translate(837.729492 0.765625)" xlink:href="#DejaVuSans-2212"/>
     <use transform="translate(941.000977 0.765625)" xlink:href="#DejaVuSans-Oblique-52"/>
     <use transform="translate(1017.500169 39.046875)scale(0.7)" xlink:href="#DejaVuSans-32"/>
     <use transform="translate(1010.483398 -26.578125)scale(0.7)" xlink:href="#DejaVuSans-Oblique-58"/>
     <use transform="translate(1072.075195 -26.578125)scale(0.7)" xlink:href="#DejaVuSans-2192"/>
     <use transform="translate(1144.365234 -26.578125)scale(0.7)" xlink:href="#DejaVuSans-Oblique-59"/>
     <use transform="translate(1189.858398 0.765625)" xlink:href="#DejaVuSans-29"/>
    </g>
   </g>
   <g id="legend_1">
    <g id="patch_22">
     <path d="M 118.5 167.39875 
L 254.315625 167.39875 
Q 257.315625 167.39875 257.315625 164.39875 
L 257.315625 70.98 
Q 257.315625 67.98 254.315625 67.98 
L 118.5 67.98 
Q 115.5 67.98 115.5 70.98 
L 115.5 164.39875 
Q 115.5 167.39875 118.5 167.39875 
z
" style="fill:#ffffff;opacity:0.8;stroke:#000000;stroke-linejoin:miter;"/>
    </g>
    <g id="text_15">
     <!-- M (mediator) -->
     <g transform="translate(121.5 89.176875)scale(0.2 -0.2)">
      <defs>
       <path d="M 3328 2828 
Q 3544 3216 3844 3400 
Q 4144 3584 4550 3584 
Q 5097 3584 5394 3201 
Q 5691 2819 5691 2113 
L 5691 0 
L 5113 0 
L 5113 2094 
Q 5113 2597 4934 2840 
Q 4756 3084 4391 3084 
Q 3944 3084 3684 2787 
Q 3425 2491 3425 1978 
L 3425 0 
L 2847 0 
L 2847 2094 
Q 2847 2600 2669 2842 
Q 2491 3084 2119 3084 
Q 1678 3084 1418 2786 
Q 1159 2488 1159 1978 
L 1159 0 
L 581 0 
L 581 3500 
L 1159 3500 
L 1159 2956 
Q 1356 3278 1631 3431 
Q 1906 3584 2284 3584 
Q 2666 3584 2933 3390 
Q 3200 3197 3328 2828 
z
" id="DejaVuSans-6d" transform="scale(0.015625)"/>
       <path d="M 2631 2963 
Q 2534 3019 2420 3045 
Q 2306 3072 2169 3072 
Q 1681 3072 1420 2755 
Q 1159 2438 1159 1844 
L 1159 0 
L 581 0 
L 581 3500 
L 1159 3500 
L 1159 2956 
Q 1341 3275 1631 3429 
Q 1922 3584 2338 3584 
Q 2397 3584 2469 3576 
Q 2541 3569 2628 3553 
L 2631 2963 
z
" id="DejaVuSans-72" transform="scale(0.015625)"/>
      </defs>
      <use xlink:href="#DejaVuSans-4d"/>
      <use x="86.279297" xlink:href="#DejaVuSans-20"/>
      <use x="118.066406" xlink:href="#DejaVuSans-28"/>
      <use x="157.080078" xlink:href="#DejaVuSans-6d"/>
      <use x="254.492188" xlink:href="#DejaVuSans-65"/>
      <use x="316.015625" xlink:href="#DejaVuSans-64"/>
      <use x="379.492188" xlink:href="#DejaVuSans-69"/>
      <use x="407.275391" xlink:href="#DejaVuSans-61"/>
      <use x="468.554688" xlink:href="#DejaVuSans-74"/>
      <use x="507.763672" xlink:href="#DejaVuSans-6f"/>
      <use x="568.945312" xlink:href="#DejaVuSans-72"/>
      <use x="610.058594" xlink:href="#DejaVuSans-29"/>
     </g>
    </g>
    <g id="patch_23">
     <path d="M 127.757812 112.233906 
L 157.757812 112.233906 
L 157.757812 101.733906 
L 127.757812 101.733906 
z
" style="fill:#3274a1;stroke:#000000;stroke-linejoin:miter;stroke-width:1.2;"/>
    </g>
    <g id="text_16">
     <!-- $\Delta$SBP -->
     <g transform="translate(169.757812 112.233906)scale(0.15 -0.15)">
      <defs>
       <path d="M 2188 4044 
L 906 525 
L 3472 525 
L 2188 4044 
z
M 50 0 
L 1831 4666 
L 2547 4666 
L 4325 0 
L 50 0 
z
" id="DejaVuSans-394" transform="scale(0.015625)"/>
       <path d="M 3425 4513 
L 3425 3897 
Q 3066 4069 2747 4153 
Q 2428 4238 2131 4238 
Q 1616 4238 1336 4038 
Q 1056 3838 1056 3469 
Q 1056 3159 1242 3001 
Q 1428 2844 1947 2747 
L 2328 2669 
Q 3034 2534 3370 2195 
Q 3706 1856 3706 1288 
Q 3706 609 3251 259 
Q 2797 -91 1919 -91 
Q 1588 -91 1214 -16 
Q 841 59 441 206 
L 441 856 
Q 825 641 1194 531 
Q 1563 422 1919 422 
Q 2459 422 2753 634 
Q 3047 847 3047 1241 
Q 3047 1584 2836 1778 
Q 2625 1972 2144 2069 
L 1759 2144 
Q 1053 2284 737 2584 
Q 422 2884 422 3419 
Q 422 4038 858 4394 
Q 1294 4750 2059 4750 
Q 2388 4750 2728 4690 
Q 3069 4631 3425 4513 
z
" id="DejaVuSans-53" transform="scale(0.015625)"/>
       <path d="M 1259 2228 
L 1259 519 
L 2272 519 
Q 2781 519 3026 730 
Q 3272 941 3272 1375 
Q 3272 1813 3026 2020 
Q 2781 2228 2272 2228 
L 1259 2228 
z
M 1259 4147 
L 1259 2741 
L 2194 2741 
Q 2656 2741 2882 2914 
Q 3109 3088 3109 3444 
Q 3109 3797 2882 3972 
Q 2656 4147 2194 4147 
L 1259 4147 
z
M 628 4666 
L 2241 4666 
Q 2963 4666 3353 4366 
Q 3744 4066 3744 3513 
Q 3744 3084 3544 2831 
Q 3344 2578 2956 2516 
Q 3422 2416 3680 2098 
Q 3938 1781 3938 1306 
Q 3938 681 3513 340 
Q 3088 0 2303 0 
L 628 0 
L 628 4666 
z
" id="DejaVuSans-42" transform="scale(0.015625)"/>
       <path d="M 1259 4147 
L 1259 2394 
L 2053 2394 
Q 2494 2394 2734 2622 
Q 2975 2850 2975 3272 
Q 2975 3691 2734 3919 
Q 2494 4147 2053 4147 
L 1259 4147 
z
M 628 4666 
L 2053 4666 
Q 2838 4666 3239 4311 
Q 3641 3956 3641 3272 
Q 3641 2581 3239 2228 
Q 2838 1875 2053 1875 
L 1259 1875 
L 1259 0 
L 628 0 
L 628 4666 
z
" id="DejaVuSans-50" transform="scale(0.015625)"/>
      </defs>
      <use transform="translate(0 0.78125)" xlink:href="#DejaVuSans-394"/>
      <use transform="translate(68.408203 0.78125)" xlink:href="#DejaVuSans-53"/>
      <use transform="translate(131.884766 0.78125)" xlink:href="#DejaVuSans-42"/>
      <use transform="translate(200.488281 0.78125)" xlink:href="#DejaVuSans-50"/>
     </g>
    </g>
    <g id="patch_24">
     <path d="M 127.757812 134.251094 
L 157.757812 134.251094 
L 157.757812 123.751094 
L 127.757812 123.751094 
z
" style="fill:#e1812c;stroke:#000000;stroke-linejoin:miter;stroke-width:1.2;"/>
    </g>
    <g id="text_17">
     <!-- SBP_${\rm AUC}_{\rm g}$ -->
     <g transform="translate(169.757812 134.251094)scale(0.15 -0.15)">
      <defs>
       <path d="M 3263 -1063 
L 3263 -1509 
L -63 -1509 
L -63 -1063 
L 3263 -1063 
z
" id="DejaVuSans-5f" transform="scale(0.015625)"/>
       <path d="M 2188 4044 
L 1331 1722 
L 3047 1722 
L 2188 4044 
z
M 1831 4666 
L 2547 4666 
L 4325 0 
L 3669 0 
L 3244 1197 
L 1141 1197 
L 716 0 
L 50 0 
L 1831 4666 
z
" id="DejaVuSans-41" transform="scale(0.015625)"/>
       <path d="M 556 4666 
L 1191 4666 
L 1191 1831 
Q 1191 1081 1462 751 
Q 1734 422 2344 422 
Q 2950 422 3222 751 
Q 3494 1081 3494 1831 
L 3494 4666 
L 4128 4666 
L 4128 1753 
Q 4128 841 3676 375 
Q 3225 -91 2344 -91 
Q 1459 -91 1007 375 
Q 556 841 556 1753 
L 556 4666 
z
" id="DejaVuSans-55" transform="scale(0.015625)"/>
       <path d="M 4122 4306 
L 4122 3641 
Q 3803 3938 3442 4084 
Q 3081 4231 2675 4231 
Q 1875 4231 1450 3742 
Q 1025 3253 1025 2328 
Q 1025 1406 1450 917 
Q 1875 428 2675 428 
Q 3081 428 3442 575 
Q 3803 722 4122 1019 
L 4122 359 
Q 3791 134 3420 21 
Q 3050 -91 2638 -91 
Q 1578 -91 968 557 
Q 359 1206 359 2328 
Q 359 3453 968 4101 
Q 1578 4750 2638 4750 
Q 3056 4750 3426 4639 
Q 3797 4528 4122 4306 
z
" id="DejaVuSans-43" transform="scale(0.015625)"/>
       <path d="M 2906 1791 
Q 2906 2416 2648 2759 
Q 2391 3103 1925 3103 
Q 1463 3103 1205 2759 
Q 947 2416 947 1791 
Q 947 1169 1205 825 
Q 1463 481 1925 481 
Q 2391 481 2648 825 
Q 2906 1169 2906 1791 
z
M 3481 434 
Q 3481 -459 3084 -895 
Q 2688 -1331 1869 -1331 
Q 1566 -1331 1297 -1286 
Q 1028 -1241 775 -1147 
L 775 -588 
Q 1028 -725 1275 -790 
Q 1522 -856 1778 -856 
Q 2344 -856 2625 -561 
Q 2906 -266 2906 331 
L 2906 616 
Q 2728 306 2450 153 
Q 2172 0 1784 0 
Q 1141 0 747 490 
Q 353 981 353 1791 
Q 353 2603 747 3093 
Q 1141 3584 1784 3584 
Q 2172 3584 2450 3431 
Q 2728 3278 2906 2969 
L 2906 3500 
L 3481 3500 
L 3481 434 
z
" id="DejaVuSans-67" transform="scale(0.015625)"/>
      </defs>
      <use transform="translate(0 0.78125)" xlink:href="#DejaVuSans-53"/>
      <use transform="translate(63.476562 0.78125)" xlink:href="#DejaVuSans-42"/>
      <use transform="translate(132.080078 0.78125)" xlink:href="#DejaVuSans-50"/>
      <use transform="translate(192.382812 0.78125)" xlink:href="#DejaVuSans-5f"/>
      <use transform="translate(242.382812 0.78125)" xlink:href="#DejaVuSans-41"/>
      <use transform="translate(310.791016 0.78125)" xlink:href="#DejaVuSans-55"/>
      <use transform="translate(383.984375 0.78125)" xlink:href="#DejaVuSans-43"/>
      <use transform="translate(454.765625 -15.625)scale(0.7)" xlink:href="#DejaVuSans-67"/>
     </g>
    </g>
    <g id="patch_25">
     <path d="M 127.757812 157.79875 
L 157.757812 157.79875 
L 157.757812 147.29875 
L 127.757812 147.29875 
z
" style="fill:#3a923a;stroke:#000000;stroke-linejoin:miter;stroke-width:1.2;"/>
    </g>
    <g id="text_18">
     <!-- SBP_${\rm AUC}_{\rm i}$ -->
     <g transform="translate(169.757812 157.79875)scale(0.15 -0.15)">
      <use transform="translate(0 0.78125)" xlink:href="#DejaVuSans-53"/>
      <use transform="translate(63.476562 0.78125)" xlink:href="#DejaVuSans-42"/>
      <use transform="translate(132.080078 0.78125)" xlink:href="#DejaVuSans-50"/>
      <use transform="translate(192.382812 0.78125)" xlink:href="#DejaVuSans-5f"/>
      <use transform="translate(242.382812 0.78125)" xlink:href="#DejaVuSans-41"/>
      <use transform="translate(310.791016 0.78125)" xlink:href="#DejaVuSans-55"/>
      <use transform="translate(383.984375 0.78125)" xlink:href="#DejaVuSans-43"/>
      <use transform="translate(454.765625 -15.625)scale(0.7)" xlink:href="#DejaVuSans-69"/>
     </g>
    </g>
   </g>
  </g>
 </g>
 <defs>
  <clipPath id="p00b89916a0">
   <rect height="380.52" width="669.6" x="108" y="60.48"/>
  </clipPath>
 </defs>
</svg>
